<?xml version="1.0" standalone="no"?>
<!DOCTYPE svg PUBLIC "-//W3C//DTD SVG 20010904//EN"
 "http://www.w3.org/TR/2001/REC-SVG-20010904/DTD/svg10.dtd">
<svg version="1.0" xmlns="http://www.w3.org/2000/svg"
 width="871.000000pt" height="871.000000pt" viewBox="0 0 871.000000 871.000000"
 preserveAspectRatio="xMidYMid meet">
<metadata>
Created by potrace 1.14, written by Peter Selinger 2001-2017
</metadata>
<g transform="translate(0.000000,871.000000) scale(0.100000,-0.100000)"
fill="#000000" stroke="none">
<path d="M5 7753 c3 -49 4 -221 4 -383 -4 -2504 -4 -2580 16 -2740 2 -19 7
-64 10 -100 3 -36 7 -81 10 -100 3 -19 7 -55 10 -79 2 -24 7 -62 11 -85 3 -22
8 -52 10 -66 1 -14 5 -36 8 -50 2 -14 10 -59 16 -100 7 -41 13 -79 15 -85 1
-5 4 -14 5 -20 7 -24 20 -83 26 -115 8 -48 12 -65 14 -65 1 0 3 -7 5 -15 1 -8
10 -42 19 -75 9 -33 19 -68 21 -79 2 -10 11 -42 19 -70 8 -28 16 -54 16 -58 4
-19 48 -140 54 -145 3 -4 6 -13 6 -21 0 -14 36 -114 60 -167 5 -11 21 -49 35
-85 15 -36 46 -104 71 -152 24 -49 41 -88 37 -88 -3 0 0 -8 8 -17 8 -10 28
-43 44 -73 83 -159 278 -452 370 -556 6 -6 28 -33 50 -60 55 -66 298 -309 364
-364 29 -25 59 -50 65 -55 6 -6 49 -39 96 -73 47 -35 93 -70 103 -78 10 -8 42
-29 70 -47 29 -17 53 -35 55 -39 2 -4 10 -8 18 -8 8 0 14 -4 14 -10 0 -5 4
-10 10 -10 5 0 33 -14 62 -31 29 -18 69 -41 88 -52 43 -25 268 -137 275 -137
3 0 24 -9 48 -19 107 -49 421 -163 487 -176 8 -2 60 -14 115 -28 93 -24 216
-50 293 -62 17 -3 47 -8 65 -11 17 -3 48 -8 67 -10 19 -2 55 -7 80 -10 25 -4
457 -8 960 -10 751 -2 931 0 1005 12 50 8 104 16 120 18 27 4 218 42 255 51
73 17 223 59 305 84 55 18 105 33 110 35 6 2 23 8 38 14 16 7 30 12 33 12 6 0
187 73 239 96 47 21 44 20 73 29 12 4 22 11 22 16 0 5 6 9 13 9 31 0 410 210
482 268 6 4 31 22 57 39 69 46 108 75 136 100 13 12 33 25 43 28 11 4 19 10
19 14 0 5 28 30 63 57 85 66 437 420 437 439 0 3 8 14 18 24 48 53 62 69 62
75 0 3 8 15 18 25 27 31 35 41 103 142 75 111 70 104 149 237 72 121 210 400
210 425 0 9 4 17 8 17 5 0 15 21 24 48 9 26 26 72 38 102 20 51 89 252 94 275
1 6 10 37 20 70 10 33 20 67 21 75 2 8 16 64 30 124 30 122 34 140 40 176 2
14 11 61 19 105 9 44 18 96 20 115 3 19 5 37 6 40 3 8 5 20 15 100 5 41 9 77
10 80 1 3 5 43 9 90 4 47 10 99 12 115 15 125 19 401 17 1390 -2 622 -3 1177
-3 1235 -1 58 -1 110 1 115 1 6 1 13 -1 18 -3 13 -1 201 4 315 l5 112 -4354 0
-4354 0 4 -87z"/>
</g>
</svg>
